<svg width="109" height="198" viewBox="0 0 109 198" fill="none" xmlns="http://www.w3.org/2000/svg">
<path d="M19.0524 80.8235C18.7689 78.4946 19.5103 76.5452 19.4449 74.5042C19.3925 72.8077 20.0075 71.2116 20.5831 69.6372C20.8186 68.9961 20.8753 68.3245 21.0803 67.6747C22.0528 64.5783 23.2696 61.591 24.4907 58.5905C25.219 56.8025 26.0171 54.9752 25.9996 52.9472C25.9953 52.0837 26.3354 51.2464 26.5579 50.4396C26.8326 49.4409 26.8675 48.3986 27.2207 47.4086C27.4519 46.7588 27.4214 46.0262 27.6874 45.3328C28.7428 42.5547 30.3651 40.191 32.5369 38.1805C33.2478 37.522 34.1636 37.2211 34.9486 36.6934C36.571 35.5988 38.3634 34.7571 39.8985 33.5316C40.339 33.1827 40.8274 32.9123 41.2853 32.6114C42.6416 31.713 43.5705 30.4919 44.3643 29.1138C44.53 28.8303 44.7698 28.5468 45.1275 28.416C46.1349 28.0497 46.2439 27.6877 45.7118 26.689C44.9574 25.2673 44.011 23.9808 42.912 22.8076C41.1327 20.9105 40.1035 18.73 40.4262 16.0653C40.5439 15.1059 39.9683 14.3558 39.7589 13.4966C39.4885 12.3802 38.8126 11.3379 39.3752 10.0993C39.6455 9.50622 39.4275 8.82153 39.7851 8.14555C40.5221 6.75872 41.6124 5.90394 42.9818 5.28903C43.9587 4.84855 45.0141 4.69156 46.0302 4.38192C46.9809 4.08973 47.8619 3.60128 48.5902 2.94711C49.929 1.73908 51.4293 1.12853 53.2478 1.28989C54.1113 1.36839 54.9879 1.34222 55.8601 1.34222C56.3617 1.34222 56.8501 1.34222 57.3342 1.0762C57.8532 0.784002 58.4943 0.862499 59.0394 0.98461C60.6879 1.34658 62.1053 2.0618 62.7682 3.78444C62.8728 4.05919 63.0298 4.32522 62.9688 4.60433C62.7551 5.60303 63.2173 6.32698 63.9326 6.88956C64.8135 7.58298 65.1973 8.58603 65.5462 9.54983C65.9561 10.6794 66.5013 11.7871 66.558 13.03C66.5798 13.4443 66.8807 13.7976 67.2427 13.9284C68.0625 14.2337 67.9753 14.8617 67.9186 15.5028C67.9099 15.6118 67.8925 15.7208 67.8576 15.8255C67.4302 17.16 68.1759 18.1499 68.8737 19.1225C69.0133 19.3144 69.1485 19.5324 69.2749 19.7243C70.2998 21.2812 70.3085 21.8918 69.0394 23.392C68.455 24.0854 68.0974 24.8617 67.9099 25.6336C67.5785 26.9725 66.8763 28.1979 66.8458 29.6502C66.8196 30.819 65.5549 31.7915 64.36 31.8395C63.4529 31.8744 62.5457 31.8526 61.6386 31.8569C61.4249 31.8569 61.2069 31.8482 60.9801 32.1055C62.1271 32.6419 63.1694 33.3092 64.1942 34.0069C66.3312 35.4548 67.7137 37.4871 68.6687 39.8203C69.3883 41.5735 69.7721 43.4139 70.0599 45.2979C70.4481 47.8317 71.5165 50.1518 72.7682 52.3759C73.7712 54.1596 74.5344 56.0436 75.1232 57.9974C75.206 58.2678 75.193 58.5731 75.1973 58.8609C75.2148 59.9861 75.2889 61.1156 75.2148 62.2364C75.1057 63.837 75.616 65.263 76.2745 66.663C77.3212 68.8871 78.4681 71.0677 79.4101 73.3354C79.8506 74.3996 80.0818 75.5771 80.387 76.711C80.8755 78.5295 81.5907 80.2478 82.4019 81.9399C83.6797 84.5915 85.1014 87.1689 86.1655 89.9208C86.4315 90.6054 86.7848 91.2552 87.0683 91.9356C87.4302 92.7991 88.4159 92.8907 89.1224 93.3268C90.3827 94.1031 91.787 94.7049 92.886 95.6643C93.8585 96.5148 94.5955 97.6748 95.2497 98.8349C95.4765 99.2361 95.6945 99.646 95.9388 100.034C96.5493 100.994 96.5886 102.075 96.6017 103.157C96.6191 104.356 96.6016 105.551 96.6365 106.75C96.6758 108.05 96.1568 108.791 94.4952 108.988C94.0286 109.044 93.5532 108.988 93.0822 109.001C92.5589 109.014 92.0835 109.11 91.5602 109.31C90.6749 109.655 89.65 109.65 88.7299 109.197C88.6077 109.136 88.4856 109.009 88.3504 109.022C87.1598 109.136 86.0696 108.486 84.8528 108.617C83.4006 108.774 82.899 108.155 82.5371 106.733C82.2754 105.695 82.1577 104.679 82.1707 103.636C82.1751 103.213 81.9309 102.965 81.6866 102.725C80.7795 101.827 80.3434 100.701 79.9553 99.5108C79.6631 98.6212 79.6282 97.5483 78.6426 96.9858C78.4812 96.8942 78.3199 96.7415 78.2632 96.4929C78.1105 95.7952 77.657 95.5073 76.9287 95.564C76.0041 95.6382 75.2976 95.0625 74.8702 94.4083C73.3962 92.1798 72.0355 89.8771 70.8493 87.4742C70.2257 86.2182 69.4625 85.032 69.0263 83.6844C68.9391 83.414 68.6644 83.2613 68.2152 82.9299C69.022 85.0276 68.3024 87.0729 68.9958 88.9831C69.0918 89.2448 69.0394 89.5588 69.0438 89.851C69.083 93.1174 69.0394 96.3883 69.1834 99.6548C69.3011 102.28 68.0756 103.981 65.8471 105.023C65.1362 105.355 65.0752 105.791 65.2584 106.288C65.9038 108.024 66.2876 109.842 66.7629 111.617C67.1293 112.982 67.4738 114.378 67.8532 115.739C68.3853 117.649 68.6513 119.624 69.3883 121.486C69.6892 122.25 69.7329 123.152 69.9465 123.985C70.3696 125.634 70.7621 127.295 71.1328 128.957C71.3334 129.86 71.5471 130.776 71.7651 131.67C71.9963 132.629 72.0181 133.637 72.4324 134.57C72.7158 135.211 72.79 135.948 72.947 136.641C73.4878 139.027 74.2422 141.33 75.0752 143.628C75.5767 145.023 76.1219 146.415 76.5536 147.841C77.0421 149.446 77.8489 150.955 78.4202 152.538C78.8868 153.828 79.3186 155.124 79.602 156.489C80.012 158.477 80.0207 160.492 80.2867 162.485C80.6051 164.884 81.7259 166.894 82.6984 168.996C83.2741 170.239 83.684 171.548 84.2161 172.804C84.2641 172.921 84.2728 173.135 84.1987 173.214C83.6579 173.824 84.0722 174.313 84.36 174.836C85.5288 176.964 87.3168 178.307 89.5366 179.236C90.4176 179.603 91.2637 179.646 92.149 179.659C92.6418 179.668 93.0517 179.899 93.514 179.978C94.8398 180.204 96.0827 179.764 97.3256 179.428C98.4769 179.114 99.5847 178.639 100.736 178.338C101.155 178.229 101.512 177.976 101.948 177.924C103.078 177.797 104.068 178.028 104.844 178.927C105.258 179.406 105.673 179.96 106.414 179.337C106.689 179.105 106.933 179.372 107.19 179.498C108.9 180.314 109.205 181.757 107.989 183.183C106.628 184.775 104.914 185.926 103.13 186.942C100.945 188.19 98.5554 188.953 96.1481 189.686C93.9719 190.348 91.7957 190.985 89.5628 191.43C89.1398 191.513 88.8432 191.918 88.2676 191.814C88.6819 192.581 88.9697 193.235 89.4843 193.785C88.8694 194.653 87.8489 194.836 86.9898 195.224C85.8035 195.756 84.565 196.266 83.2959 196.476C82.0312 196.685 80.7839 197.13 79.4581 197.021C78.9086 196.977 78.5554 196.698 78.1847 196.362C77.3735 195.634 77.0072 194.627 76.5536 193.693C76.2963 193.157 76.3007 192.459 76.7412 191.936C77.0857 191.526 77.0072 191.077 76.8197 190.719C76.1829 189.507 75.9954 188.22 75.9998 186.881C75.9998 186.218 76.087 185.638 76.7368 185.215C77.1598 184.945 77.3343 184.587 77.1249 183.881C76.8022 182.795 76.3007 181.766 76.0652 180.654C75.9256 180 75.4503 179.908 74.9924 180.143C73.8105 180.758 72.5763 180.475 71.3726 180.423C70.4132 180.383 70.3216 179.385 70.0294 178.713C69.2837 177.008 68.7778 175.207 67.8489 173.576C67.6526 173.231 67.4389 172.908 67.1772 172.647C66.1044 171.565 65.4895 170.296 65.1057 168.818C64.7176 167.326 64.5082 165.817 64.216 164.313C63.8148 162.237 62.7463 160.388 61.4816 158.665C59.5671 156.053 57.5348 153.501 56.1741 150.545C55.3804 148.818 54.6478 147.051 54.2073 145.172C54.011 144.339 53.5662 143.554 53.3002 142.708C52.8466 141.264 52.4018 139.816 51.7476 138.425C51.0455 136.934 50.5832 135.329 49.7459 133.828C48.974 134.317 48.9652 135.228 48.6774 135.926C48.0974 137.313 47.5217 138.709 47.0202 140.126C46.052 142.852 44.6521 145.364 43.2871 147.88C42.2055 149.877 40.9888 151.809 39.8156 153.759C38.1889 156.458 36.5186 159.14 34.7 161.718C34.2945 162.293 33.8409 162.825 33.3568 163.318C32.9294 163.754 32.6678 164.278 32.5893 164.81C32.4453 165.769 32.3363 166.72 32.079 167.666C31.5993 169.402 31.2548 171.173 30.4349 172.804C30.1994 173.266 30.1383 173.815 29.881 174.295C29.4275 175.141 28.6599 175.556 27.84 175.132C27.1553 174.779 26.3878 174.832 25.7074 174.448C25.1536 174.134 24.7262 174.487 24.7523 175.172C24.8047 176.502 25.1928 177.771 25.6944 178.992C25.8252 179.315 26.1915 179.572 26.6625 179.563C27.1684 179.555 27.4606 179.877 27.7397 180.309C27.9927 180.693 28.2325 181.112 28.3895 181.508C28.9608 182.956 30.1994 183.375 31.4903 183.462C32.7245 183.545 33.9107 183.833 35.1231 183.999C35.9604 184.112 36.7062 184.91 36.7454 186.022C36.7803 186.899 37.0768 187.575 37.5086 188.286C38.0101 189.11 37.7136 190.283 36.946 190.436C36.2439 190.58 35.5592 190.859 34.8352 190.88C32.0049 190.955 29.1702 191.02 26.3398 190.872C24.8832 190.793 23.5007 190.239 22.2098 189.563C20.1034 188.46 18.202 187.017 16.1086 185.734C15.5722 186.166 15.3236 186.838 15.0925 187.47C14.8744 188.063 14.6084 188.015 14.0633 187.967C12.9512 187.871 12.0266 187.309 11.041 186.929C9.33582 186.271 7.59138 185.708 5.94724 184.88C4.54732 184.173 4.29438 183.545 4.8744 182.075C5.21021 181.221 5.52857 180.357 5.82076 179.489C6.05626 178.796 6.51418 178.473 7.10729 178.377C7.61754 178.294 7.86176 177.98 8.04929 177.631C8.66421 176.48 9.47538 175.486 10.3476 174.531C10.7445 174.095 11.3114 173.964 11.778 173.658C11.9874 173.523 12.2272 173.637 12.4802 173.75C13.5007 174.204 13.5923 174.138 14.2726 173.144C14.8875 172.241 15.3716 171.277 15.8426 170.196C15.7292 170.109 15.5678 170.017 15.4545 169.89C14.6564 168.983 14.5822 168.634 15.1274 167.631C15.8644 166.279 16.5622 164.888 17.4562 163.645C18.2499 162.542 18.5465 161.273 18.9172 160.056C19.3228 158.73 19.8592 157.466 20.3869 156.201C20.9713 154.805 21.6778 153.458 22.4584 152.158C23.2129 150.907 24.1854 149.794 24.7916 148.438C25.424 147.03 25.9429 145.608 25.9299 144.038C25.9255 143.309 25.9953 142.577 25.9037 141.862C25.5722 139.337 26.68 137.248 27.8662 135.18C28.5465 133.999 29.2487 132.83 29.99 131.687C30.1776 131.395 30.2692 131.12 30.2997 130.789C30.557 128.089 30.7663 125.39 30.823 122.668C30.8623 120.741 31.0498 118.791 31.5295 116.894C31.6342 116.48 31.6037 116.026 31.6342 115.595C31.6734 115.063 31.656 114.548 31.922 114.02C32.2491 113.375 31.97 113.039 31.2417 112.956C29.6499 112.777 28.1278 112.315 26.6407 111.744C26.209 111.578 25.7423 111.604 25.3149 111.312C25.014 111.107 24.6782 111.425 24.7 111.822C24.748 112.756 24.2377 113.24 23.4527 113.589C22.7026 113.92 22.0703 113.828 21.3332 113.458C20.7096 113.144 19.9377 113.161 19.2312 113.008C18.7602 112.908 18.4375 112.686 18.1802 112.367C17.7222 111.796 17.1771 111.229 16.9372 110.562C16.5709 109.541 15.6856 109.24 14.8962 109.075C13.5617 108.796 12.5761 108.137 12.0048 106.99C11.5513 106.07 10.7357 105.813 9.94638 105.564C7.82252 104.897 5.7379 104.116 3.71435 103.196C3.13868 102.934 2.5194 102.821 1.95682 102.494C0.574347 101.691 0.2211 100.514 0.522016 98.9221C0.96685 96.5845 2.11818 94.5305 2.79415 92.2976C3.42651 90.1955 4.40776 88.1894 4.8526 86.0568C5.20585 84.3647 6.07371 82.8994 6.45312 81.2247C6.77585 79.803 7.90974 78.922 9.37071 78.4598C10.5264 78.0934 11.4859 78.5208 12.5325 78.8261C13.2477 79.0354 13.9193 79.4497 14.7087 79.4018C14.9573 79.3843 15.1884 79.4759 15.4239 79.598C16.4968 80.1475 17.6917 80.3001 19.0306 80.8278L19.0524 80.8235ZM37.9229 67.6573C37.4039 68.9002 36.7149 69.8596 35.7903 70.6446C35.171 71.1723 34.5212 71.7567 34.386 72.5461C34.2203 73.5317 33.9412 74.5086 33.8453 75.4898C33.7144 76.7807 33.5095 78.0803 33.2521 79.3276C32.8902 81.1026 33.0733 82.8601 32.9381 84.622C32.9163 84.9142 32.8422 85.2631 33.2478 85.455C34.1331 85.8736 34.9661 86.458 35.8906 86.7415C37.6176 87.2692 39.3315 87.8143 40.967 88.5732C41.861 88.9875 42.7681 89.4846 42.9338 90.6185C43.1562 92.1188 42.7725 93.5754 42.3712 94.984C42.0223 96.2008 41.6822 97.4262 41.2679 98.6255C40.8187 99.9252 40.4436 101.264 40.038 102.585C39.8723 103.122 39.6281 103.75 39.6674 104.212C39.7371 104.967 40.6268 104.544 41.1283 104.731C41.1632 104.744 41.2025 104.74 41.233 104.753C43.0995 105.459 45.1013 105.547 47.0376 105.852C49.0612 106.166 51.172 106.109 53.2348 105.939C54.2553 105.856 55.3368 105.464 55.8689 104.548C56.6234 103.253 57.3255 101.914 57.8401 100.479C58.1803 99.5283 58.5553 98.5732 58.9609 97.6356C59.506 96.3752 60.0773 95.1192 60.4524 93.7803C60.7577 92.6944 61.0891 91.6041 61.4424 90.527C61.8785 89.2143 62.2623 87.8754 62.537 86.5365C62.7943 85.2849 63.1519 84.0115 63.0473 82.6944C63.0167 82.3281 63.1825 82.049 63.575 81.9966C63.9369 81.9486 64.3251 81.9007 64.578 82.2365C64.8092 82.5461 64.7525 82.9343 64.7437 83.2919C64.6304 89.6809 64.9705 96.0743 64.7525 102.463C64.7437 102.747 64.6827 103.048 64.8702 103.344C64.9967 103.34 65.1624 103.379 65.2758 103.318C66.776 102.507 67.7791 101.334 67.7834 99.5501C67.7922 96.3665 67.7224 93.1872 67.4825 89.9993C67.2819 87.3739 66.7629 84.7616 66.872 82.11C66.8763 81.9661 66.8458 81.8178 66.8065 81.6826C66.3922 80.226 66.2963 78.6996 66.1437 77.2168C65.9954 75.782 65.4851 74.4039 65.5549 72.9473C65.5593 72.8426 65.5156 72.7292 65.4677 72.6377C65.0359 71.8091 65.0752 70.8671 65.3107 70.0864C65.8253 68.3594 65.8035 66.5757 65.9256 64.84C66.2483 60.2783 66.0695 55.6947 66.0564 51.1199C66.0564 50.2564 66.0564 49.4017 65.773 48.5425C65.4372 47.522 65.7948 46.9027 66.776 46.3663C66.9243 46.6411 67.3822 46.6498 67.3778 47.0597C67.3648 48.1151 67.8445 49.0877 67.8052 50.1605C67.6352 54.3908 68.1062 58.6298 67.4607 62.8601C67.1293 65.0275 67.4563 67.2517 67.0115 69.4497C66.5841 71.5648 67.1642 73.6974 67.4738 75.7995C67.5567 76.3708 67.7006 77.0031 67.9622 77.5439C69.541 80.7537 70.8973 84.0638 72.6199 87.2038C73.7582 89.271 75.0141 91.2596 76.2614 93.257C76.4577 93.571 76.7237 93.7716 77.1947 93.8327C79.5584 94.1467 81.5384 93.3093 83.3613 91.9312C84.1507 91.3338 84.5519 90.4746 84.2946 89.9251C83.261 87.701 82.2361 85.4681 81.1546 83.2657C80.121 81.1593 79.227 79.0136 78.6295 76.7328C78.3722 75.7428 78.1062 74.7266 77.7137 73.789C76.8938 71.8396 75.9082 69.9599 75.0142 68.0454C74.155 66.2007 73.3831 64.3385 73.5096 62.2277C73.575 61.1069 73.5096 59.9774 73.4921 58.8522C73.4878 58.5295 73.4921 58.1806 73.3831 57.884C72.6199 55.7776 71.6125 53.7889 70.544 51.8221C69.7328 50.3349 69.1441 48.7301 68.7385 47.0946C68.285 45.263 68.0364 43.3964 67.4564 41.5822C66.6844 39.1618 65.2845 37.2254 63.4049 35.5813C63.1912 35.3938 62.9688 35.3545 62.6984 35.4112C62.4978 35.8648 62.5981 36.3401 62.6286 36.7981C62.7245 38.1326 62.5981 39.3668 61.4903 40.3262C61.0848 40.6794 61.1415 41.2464 61.377 41.6476C62.3059 43.2481 62.6548 45.0624 62.9034 46.8112C63.1999 48.9089 63.5444 51.0196 63.5139 53.174C63.4485 57.714 63.5444 62.2539 63.4747 66.7938C63.4572 67.8492 63.3307 68.8435 62.8205 69.7593C61.752 69.7942 61.4467 69.502 61.2418 68.4684C61.0542 67.5177 60.9845 66.5321 60.7359 65.6163C60.2823 63.9329 60.1035 62.1841 59.5104 60.5399C59.24 59.7986 59.2095 58.983 58.9522 58.2547C58.5292 57.0554 58.2108 55.8299 57.7834 54.635C57.3996 53.5622 57.2514 52.389 56.7978 51.3729C56.1916 50.0166 55.786 48.5992 55.2322 47.2298C54.325 44.9926 53.2391 42.8818 51.8043 40.9368C49.6238 37.9886 46.9068 35.5551 44.3207 32.9864C43.95 32.6158 43.7319 32.7248 43.3568 32.9952C41.4728 34.3384 39.6891 35.8386 37.5566 36.8155C37.1946 36.9812 36.6102 37.1775 36.7105 37.9014C39.24 37.8578 41.5165 38.5294 43.4353 40.191C44.1462 40.8059 44.9356 41.3423 45.3019 42.2931C45.4676 42.7204 45.1929 42.9385 45.0228 43.1173C44.8571 43.2961 44.4951 43.2917 44.2509 43.0344C43.9848 42.7553 43.6839 42.5024 43.4179 42.2233C41.6168 40.3262 39.5321 39.0702 36.7934 39.2621C36.2133 39.3013 35.6246 39.2359 35.0533 39.3101C34.0633 39.4409 33.1257 39.7156 32.4235 40.5137C30.3258 42.908 29.0044 45.6424 28.5247 48.8129C28.2848 50.396 27.7441 51.918 27.5042 53.5186C27.2992 54.8705 26.7759 56.1745 26.3965 57.5046C25.9822 58.9656 25.3673 60.3611 24.8352 61.7741C24.1505 63.5884 23.4658 65.3939 22.8335 67.2255C22.6198 67.8492 22.6023 68.5077 22.3712 69.0921C21.7737 70.601 21.5862 72.1972 21.2373 73.7585C20.9669 74.9752 21.041 76.253 20.8317 77.5047C20.6137 78.8086 20.1034 80.0821 20.2299 81.4428C20.2386 81.5474 20.2081 81.6652 20.1601 81.7568C19.2661 83.4925 19.4449 85.4506 19.0524 87.291C18.8082 88.4336 18.5988 89.6111 18.3895 90.7625C18.2107 91.7568 18.1932 92.8122 17.7615 93.8021C17.4649 94.4825 17.5478 95.2587 18.4287 95.7385C20.4261 96.8331 22.5282 97.3477 24.796 97.1864C25.1056 97.1646 25.3804 96.977 25.4632 96.7066C25.8034 95.66 26.1872 94.6177 26.3747 93.5405C26.632 92.0621 26.8806 90.5531 27.3952 89.175C28.0799 87.3346 28.3677 85.407 28.9216 83.5448C29.3228 82.2059 29.7676 80.9412 30.4872 79.755C30.9669 78.9656 31.4074 78.1065 31.5688 77.2299C31.8435 75.7689 31.7127 74.2774 31.0323 72.8993C30.4349 71.6826 29.7022 70.5225 29.2269 69.2622C28.9434 68.5164 28.2674 67.7925 28.6599 66.8374C29.3402 66.567 29.7764 66.6935 30.0598 67.4479C30.5962 68.8915 31.3812 70.2216 32.0703 71.5954C32.345 72.1449 32.598 72.158 32.9643 71.6651C33.3786 71.1069 33.6839 70.4746 34.2683 70.0428C36.2657 68.5731 37.2295 66.3882 38.0712 64.1946C38.5247 63.0214 39.035 61.9311 39.8636 61.0153C41.5208 59.1749 43.3045 57.4479 44.8265 55.4898C45.2016 55.0057 45.7031 54.7833 46.3747 55.1409C46.4358 55.5683 46.4838 55.9346 46.1218 56.3794C44.6216 58.2198 43.0777 60.0123 41.3159 61.6084C40.2256 62.594 39.5191 63.8369 39.0742 65.2238C38.8998 65.7733 38.9434 66.301 39.3752 66.833C40.2605 67.9364 41.2853 68.8348 42.4715 69.6023C44.0895 70.649 45.6246 71.8134 47.4563 72.4938C48.3983 72.8426 48.3983 73.3921 47.4737 74.1205C43.9412 72.5723 40.5657 70.7449 37.9011 67.6791L37.9229 67.6573ZM16.8544 168.521C17.2905 169.075 17.9621 169.057 18.4898 169.345C20.6791 170.549 22.8247 171.866 25.2713 172.485C26.1305 172.703 26.9242 173.222 27.8575 173.122C28.1278 173.092 28.4244 173.187 28.577 172.808C28.9913 171.766 29.519 170.763 29.8549 169.699C30.3564 168.115 30.8492 166.515 31.1283 164.88C31.3943 163.34 32.1314 162.106 33.069 160.955C34.2901 159.454 35.3411 157.836 36.3834 156.223C38.1759 153.462 39.8462 150.619 41.4947 147.767C42.127 146.676 42.7899 145.551 42.9425 144.265C43.0559 143.296 43.3481 142.367 43.54 141.425C43.8976 139.664 44.325 137.928 44.2901 136.109C44.2247 132.891 44.482 129.668 43.8845 126.463C43.7101 125.512 43.588 124.504 43.2914 123.632C42.803 122.18 42.6416 120.645 42.079 119.227C41.6342 118.111 41.4205 116.925 40.8536 115.843C40.2823 114.757 39.8462 113.597 39.3228 112.481C39.2487 112.324 39.1309 112.189 39.1004 112.005C39.0175 111.46 39.1091 110.954 39.6761 110.758C40.2256 110.566 40.5657 111.015 40.7489 111.412C41.2635 112.52 41.861 113.593 42.3625 114.701C43.0167 116.135 43.8715 117.474 44.3512 118.996C44.7655 120.309 45.2496 121.617 45.8601 122.852C47.0289 125.202 48.2457 127.535 49.5714 129.803C50.6748 131.687 51.6168 133.654 52.4367 135.651C53.1039 137.274 53.8497 138.879 54.4166 140.553C54.6434 141.221 54.7132 141.927 54.9923 142.594C55.3412 143.432 55.7642 144.278 55.9779 145.154C56.4315 146.999 57.2252 148.691 58.0625 150.37C59.3185 152.886 61.1109 155.058 62.694 157.361C63.6535 158.752 64.5693 160.143 65.2584 161.709C66.0434 163.488 65.9518 165.416 66.4446 167.239C66.8458 168.713 67.2601 170.152 68.3111 171.317C69.0438 172.128 69.6325 173.022 70.0381 174.064C70.5048 175.272 70.9234 176.506 71.5601 177.645C72.1489 178.696 72.7856 178.931 73.9282 178.556C75.1799 178.142 76.3661 177.614 77.5392 177.003C79.118 176.184 80.4176 175.05 81.6736 173.842C82.1489 173.384 82.3932 172.817 82.1446 172.189C81.6823 171.016 81.2636 169.825 80.6705 168.7C79.5759 166.624 78.6426 164.478 78.6731 162.054C78.6775 161.617 78.7167 161.151 78.5772 160.754C78.0626 159.306 78.3853 157.758 77.9143 156.279C77.6657 155.499 77.5436 154.592 77.2732 153.807C76.619 151.91 75.8166 150.056 75.097 148.181C74.0329 145.412 73.0735 142.612 72.0748 139.821C71.8131 139.084 71.8872 138.325 71.595 137.631C71.015 136.244 70.8318 134.753 70.4045 133.323C70.1253 132.389 70.1341 131.386 69.8462 130.488C69.5235 129.493 69.4189 128.469 69.1703 127.47C68.9391 126.541 68.7472 125.582 68.5161 124.666C68.1541 123.227 67.9055 121.731 67.3211 120.366C66.981 119.563 67.0944 118.722 66.824 117.963C66.3748 116.724 66.0346 115.451 65.7032 114.19C65.2104 112.332 64.6522 110.496 64.2248 108.617C63.8541 106.973 63.2392 105.394 62.8859 103.728C62.4542 101.704 61.8523 99.6896 61.076 97.7446C60.6007 97.7184 60.4829 98.0063 60.3739 98.3988C60.0948 99.4193 59.6848 100.405 59.3534 101.408C58.9347 102.673 58.2806 103.855 57.7442 105.08C57.5435 105.542 57.247 106.039 56.8719 106.24C55.4982 106.964 54.0939 107.666 52.4672 107.675C49.6848 107.688 46.9024 107.644 44.1418 107.234C43.649 107.16 43.1606 107.086 42.6722 106.986C41.5862 106.763 40.4785 106.598 39.3839 106.384C39.144 106.336 38.8736 106.34 38.6512 106.567C38.5553 107.518 38.0537 108.355 37.7179 109.245C37.0681 110.985 36.113 112.455 34.1724 112.969C33.9761 113.022 33.8191 113.113 33.8104 113.309C33.7929 113.793 33.444 114.173 33.4048 114.644C33.2391 116.615 32.7419 118.551 32.5893 120.51C32.3712 123.318 31.8653 126.114 32.0267 128.948C32.0485 129.345 32.0398 129.746 32.0136 130.148C31.9438 131.111 31.7694 132.053 31.2155 132.865C30.304 134.19 29.6935 135.704 28.7166 136.99C28.5422 137.217 28.4767 137.5 28.782 137.758C31.4597 135.739 34.2029 133.85 37.1815 132.328C37.4737 132.18 37.7572 132.084 37.9796 132.228C38.2238 132.381 38.2413 132.716 38.2195 133.022C38.1933 133.423 37.997 133.663 37.6482 133.872C36.2352 134.727 34.8222 135.586 33.4528 136.506C31.8217 137.605 30.3389 138.953 28.5596 139.777C27.7615 140.148 27.4955 140.671 27.3821 141.343C27.2818 141.94 27.2338 142.625 27.4301 143.174C27.9098 144.518 27.4388 145.743 27.0637 146.951C26.9024 147.47 26.994 148.076 26.6625 148.504C26.0127 149.345 25.69 150.379 25.0271 151.199C22.8814 153.859 21.5862 156.912 20.6573 160.174C20.3651 161.194 20.2473 162.302 19.7502 163.231C18.8082 164.989 17.7615 166.685 16.8369 168.521H16.8544ZM12.2709 104.544C13.2565 103.274 13.806 101.731 14.5866 100.322C15.1143 99.3669 15.7379 98.3464 15.86 97.2998C16.0781 95.407 16.4444 93.5492 16.7366 91.6783C16.8587 90.8933 17.2338 90.1737 17.2469 89.3887C17.26 88.438 17.5434 87.5091 17.8225 86.6674C18.1714 85.6251 18.0668 84.6089 18.1932 83.5884C18.2238 83.3442 18.1932 82.9604 17.9316 82.9386C16.9808 82.847 16.2307 82.2539 15.3585 81.9835C13.8408 81.5125 12.3188 81.0677 10.8491 80.4528C9.81554 80.021 8.84301 80.165 8.13651 81.2203C7.48671 82.1885 7.0506 83.3398 6.87179 84.4214C6.64065 85.8082 6.12604 87.086 5.79896 88.4249C5.37593 90.1563 4.53424 91.7611 4.0894 93.523C3.60096 95.4637 2.61098 97.2605 2.31007 99.2841C2.18796 100.095 2.32752 100.78 3.06454 101.085C5.01832 101.892 6.94157 102.769 8.96949 103.388C10.0772 103.728 11.1588 104.147 12.2752 104.539L12.2709 104.544ZM54.5518 2.60259C52.1358 2.55897 52.0573 2.47611 50.4306 3.53586C48.516 4.7875 46.4489 5.54633 44.2945 6.25719C41.9177 7.04219 40.7925 8.57731 40.8012 11.194C40.8012 12.2973 41.2722 13.2742 41.752 14.2031C42.0005 14.6829 42.0965 15.119 42.0921 15.6161C42.0834 16.3401 42.0572 17.0684 42.0747 17.7923C42.0834 18.1412 42.1881 18.4596 42.3451 18.8041C43.0908 20.4439 44.3163 21.6912 45.5592 22.921C46.4445 23.7976 47.0812 23.6711 47.9317 22.7902C48.6163 22.0837 48.7515 21.1722 49.0568 20.3349C49.5191 19.0789 50.0381 17.8534 50.8318 16.7849C52.3189 14.7875 53.4572 14.4604 55.7773 15.2018C56.7411 15.5115 57.2906 15.1364 57.8924 14.2293C58.3634 13.5141 58.08 12.7465 58.3504 12.0575C58.5117 11.6344 58.4855 11.2986 58.3722 10.8407C58.1367 9.88128 57.6439 9.08319 57.1772 8.25458C56.7542 7.50883 56.885 6.92881 57.6395 6.593C58.4812 6.22231 59.3403 5.8865 60.2474 5.69897C61.3115 5.48092 61.6081 4.83984 61.0673 3.91092C60.2387 2.48047 58.6425 1.92225 57.2906 2.34527C56.3093 2.65055 55.363 2.52408 54.5562 2.59822L54.5518 2.60259ZM29.5845 87.1514C29.3664 87.5745 29.3184 87.9408 29.2225 88.2679C28.7995 89.7332 28.3852 91.2073 28.1409 92.725C27.9142 94.1249 27.6787 95.5379 27.1292 96.8549C27.0027 97.1602 26.8718 97.4437 26.8718 97.7751C26.8718 98.2112 26.7018 98.4554 26.2787 98.6691C25.2408 99.1968 25.2234 99.4847 26.065 100.257C26.1915 100.374 26.3223 100.51 26.4532 100.597C28.106 101.652 28.5465 103.253 28.5465 105.08C28.5465 105.834 28.3895 106.641 28.7035 107.339C29.2007 108.442 29.4144 109.515 28.7951 110.606C29.7109 111.085 30.6747 111.212 31.5862 111.513C33.1126 112.019 33.9717 111.539 34.8004 110.078C35.6508 108.578 35.9255 106.899 36.4881 105.307C36.789 104.465 36.8588 103.584 37.1641 102.742C37.5217 101.752 37.9229 100.749 38.1453 99.7202C38.4331 98.3988 38.9609 97.1602 39.3097 95.8606C39.615 94.7311 40.0206 93.6321 40.2954 92.4938C40.5221 91.5474 40.2517 91.1462 39.3577 90.6011C38.7384 90.226 38.0581 90.0429 37.3821 89.851C35.8557 89.4192 34.434 88.7127 32.9294 88.2417C31.8261 87.8972 30.8448 87.1514 29.5845 87.1514ZM47.4127 28.6428C48.045 29.1487 48.8518 29.2054 49.5714 29.4801C50.9539 30.0078 52.2928 30.6358 53.7319 31.0327C54.7437 31.3118 55.7555 31.6389 56.7411 32.0183C57.4781 32.3018 58.0015 32.7858 57.875 33.706C57.8096 34.1901 57.9404 34.6175 58.5335 34.8922C58.5989 33.7104 59.1179 32.7422 59.5278 31.7348C59.8942 30.8321 60.5178 30.4003 61.5078 30.4657C62.1925 30.5137 62.8903 30.5442 63.575 30.4962C64.3643 30.4396 65.2365 30.1997 65.5505 29.4714C65.8776 28.7082 66.6365 27.7749 65.3412 26.9812C64.8266 26.6628 65.2845 25.3371 65.8122 25.4592C66.8807 25.7034 66.8981 25.0318 66.9199 24.3689C66.9461 23.5577 67.343 22.9079 67.8707 22.4108C68.4245 21.8831 68.442 21.2856 68.1934 20.7535C67.9622 20.2476 67.7398 19.6371 67.1075 19.3711C66.8632 19.8551 66.6975 20.4264 66.0521 20.5486C64.8092 20.7841 64.2117 20.0732 64.3992 18.7779C64.4559 18.4029 64.8571 18.0889 64.5213 17.5219C62.9121 17.6048 61.2766 17.0902 59.5802 17.0727C58.865 17.064 58.1236 16.8896 57.7267 17.7531C57.6308 17.9668 57.3516 17.9275 57.1423 17.9668C56.4707 18.0802 56.0172 17.7269 55.5592 17.2995C55.2932 17.0509 55.1406 16.6715 54.6739 16.6061C53.6142 16.4578 52.8553 16.9158 52.5937 17.9668C52.3277 19.0353 52.5719 20.0514 53.0865 20.9672C53.4746 21.6606 53.9064 22.3846 54.9269 22.3759C55.1973 22.3759 55.5941 22.6768 55.5461 23.1129C55.4938 23.6144 55.0839 23.5795 54.7219 23.6144C54.0372 23.6798 53.4921 23.4225 52.9731 22.9951C51.957 22.1578 51.6255 20.9105 50.9888 19.6938C50.8449 20.1037 50.4698 20.0906 50.3608 20.4831C50.1689 21.1591 49.82 21.7915 49.5671 22.4456C49.3185 23.0824 48.6381 23.4792 48.6381 24.2032C48.6381 25.8124 47.8313 27.1905 47.4127 28.6515V28.6428ZM53.4921 36.6847C53.7276 36.6716 53.9064 36.6541 54.0808 36.6498C55.3019 36.628 55.943 36.2049 56.3791 35.1321C56.6539 34.4561 56.523 33.4182 56.1044 33.2481C55.315 32.9254 54.5344 32.5503 53.7101 32.3584C52.114 31.9878 50.6268 31.3423 49.1353 30.7187C48.1541 30.3044 47.0769 30.2128 46.1131 29.7549C45.8689 29.6415 45.6639 29.7505 45.4502 29.9555C44.6303 30.7361 44.5823 30.9934 45.3586 31.7653C45.5548 31.9616 45.7511 32.1709 45.943 32.3628C48.5466 34.9533 51.1196 37.57 53.2915 40.5486C54.3468 41.9965 55.2889 43.536 55.9387 45.1845C56.8152 47.413 57.5741 49.6939 58.298 51.9834C58.5204 52.6812 58.6033 53.4182 58.9129 54.1073C59.4799 55.3589 60.0119 56.6542 60.3172 57.9843C60.7184 59.7419 61.5252 61.3511 61.8305 63.1217C62.1227 63.0563 62.1053 62.8775 62.1009 62.7554C62.005 59.1051 62.3102 55.4592 61.8349 51.8046C61.5645 49.7375 61.3726 47.679 60.9321 45.6337C60.6443 44.2992 60.2256 43.0519 59.6456 41.8395C59.0612 40.614 59.1964 40.0645 60.3739 39.2664C60.592 39.1182 60.7577 38.9524 60.8885 38.7257C61.5776 37.5176 61.2592 36.2704 61.2025 34.8617C59.8811 36.266 59.5017 38.1238 57.9971 39.1749C57.6613 38.6559 57.3778 38.2634 57.3386 37.7139C57.2862 37.0161 56.8807 36.785 56.3442 37.1993C55.9212 37.5264 55.4284 37.5787 54.9879 37.8055C54.482 38.0715 54.0372 37.5874 53.5531 37.4784C53.3438 37.4304 53.3874 37.0423 53.4921 36.6847ZM20.2473 111.604C20.4087 110.928 20.1383 110.318 20.2473 109.707C20.2909 109.463 20.3215 109.179 20.6224 109.11C20.9277 109.036 21.041 109.267 21.2024 109.48C21.56 109.938 21.6167 110.453 21.6342 110.998C21.656 111.569 21.9656 111.923 22.5195 112.062C23.1213 112.215 23.287 111.827 23.5312 111.377C23.7406 110.989 23.7537 110.627 23.7624 110.239C23.7973 108.861 23.8234 107.483 23.8452 106.105C23.854 105.542 24.1592 105.189 24.5866 104.879C25.0707 104.526 25.2844 105.076 25.6202 105.18C26.1087 105.333 25.9647 105.848 25.956 106.223C25.9342 107.3 26.3223 108.237 26.8239 109.158C27.0027 109.485 27.212 109.445 27.4432 109.367C27.7266 109.271 27.6917 108.966 27.5871 108.817C27.26 108.368 27.3254 107.858 27.2644 107.361C27.1466 106.419 27.2644 105.477 27.2338 104.535C27.1989 103.663 26.9765 102.777 26.3136 102.25C25.485 101.591 24.5953 100.85 23.3481 101.186C23.0428 101.268 22.6983 101.186 22.3712 101.199C20.618 101.29 18.9651 100.828 17.3603 100.209C16.5055 99.8772 16.3921 99.8423 16.0258 100.614C15.2451 102.267 14.4209 103.894 13.4832 105.464C13.2347 105.878 13.1649 106.367 13.5443 106.641C14.133 107.069 14.6825 107.544 15.4501 107.758C16.3659 108.015 17.2382 108.416 17.8487 109.315C18.2935 109.969 18.7122 110.662 19.2792 111.251C19.5626 111.548 19.7763 111.731 20.243 111.609L20.2473 111.604ZM89.1616 181.059C88.019 180.488 86.8764 180.087 85.9431 179.215C84.9444 178.281 83.9239 177.405 83.2523 176.175C82.8642 175.468 82.6941 175.516 82.0661 176.035C81.6649 176.367 81.268 176.716 80.858 177.038C79.9902 177.723 79.0569 178.273 78.0756 178.778C77.6177 179.014 77.3212 179.28 77.6177 180.026C78.1236 181.299 78.7037 182.577 78.7603 184.007C78.804 185.141 79.336 185.551 80.4481 185.695C82.3932 185.948 84.2641 185.433 86.1394 185.124C86.824 185.01 87.6178 185.085 88.224 184.705C89.1616 184.116 90.1516 184.252 91.0369 184.548C91.678 184.766 92.2842 184.84 92.9209 184.84C93.9588 184.84 94.0504 184.701 93.828 183.567C92.8642 183.362 91.8568 183.523 90.8668 183.183C89.6588 182.769 89.2837 182.472 89.166 181.059H89.1616ZM17.417 170.937C16.6102 172.075 15.9996 173.305 15.1754 174.4C14.9573 174.688 15.0881 174.993 15.389 175.329C15.9385 175.944 16.6799 176.279 17.2512 176.868C18.3938 178.041 19.3533 179.393 20.7532 180.327C21.7126 180.963 22.4192 181.931 23.3873 182.581C24.0066 182.996 24.5081 183.501 24.7131 184.273C24.809 184.635 25.0576 184.971 25.2888 185.276C25.5548 185.625 25.9299 185.957 26.3616 185.63C26.7454 185.342 26.6843 184.893 26.4226 184.5C26.4008 184.47 26.379 184.443 26.3572 184.413C25.7249 183.576 24.9312 182.817 25.0227 181.622C25.0315 181.508 24.8701 181.391 24.809 181.264C23.758 179.162 23.021 176.986 23.2652 174.583C23.2783 174.474 23.2739 174.365 23.2783 174.256C23.3001 173.837 23.1126 173.632 22.6939 173.484C20.8753 172.83 19.2443 171.792 17.4082 170.937H17.417ZM93.9152 104.53C93.9763 104.16 93.9763 103.807 93.7626 103.423C93.4965 102.939 93.1869 102.455 93.0997 101.892C92.9122 100.649 92.6112 99.4236 92.681 98.1414C92.729 97.2649 92.3496 96.602 91.473 96.2095C90.3304 95.6992 89.2183 95.1148 88.1062 94.5435C87.548 94.2557 87.282 94.4171 86.968 94.7354C86.5231 95.1846 86.1437 95.6731 85.5637 95.9871C84.1114 96.7721 82.6156 97.4393 80.9758 97.7926C80.6792 98.4162 81.316 98.8305 81.3334 99.4105C81.3596 100.278 81.8698 100.981 82.4368 101.622C82.681 101.901 82.947 102.04 83.3439 102.062C85.1232 102.162 86.8153 101.521 88.5772 101.495C88.5947 101.495 88.6077 101.382 88.6426 101.255C87.8663 101.264 87.2165 100.841 86.4839 100.675C85.9911 100.566 85.5332 100.291 85.1145 99.9339C84.6871 99.5675 84.6522 99.1663 84.8921 98.8C85.1625 98.3857 85.4677 98.704 85.7817 98.909C86.5362 99.4062 87.4651 99.4454 88.2937 99.7681C88.7211 99.9339 89.2009 99.7812 89.48 99.4367C89.7983 99.0442 90.1254 98.8654 90.579 99.0835C91.0238 99.2928 90.9278 99.7594 90.9802 100.139C91.0107 100.353 90.9496 100.575 90.9802 100.789C91.1285 102.001 91.377 103.183 92.2798 104.094C92.7115 104.53 93.1913 104.897 93.9196 104.535L93.9152 104.53ZM59.022 15.1321C59.9509 15.7383 60.7838 15.7077 61.6168 15.747C62.5545 15.7949 63.4965 15.6685 64.4254 15.9607C64.735 16.0566 65.1101 15.8865 65.158 15.5115C65.2322 14.9402 65.4372 14.3383 65.3761 13.8019C65.158 11.8874 64.5737 10.0339 63.4049 8.49444C62.5719 7.39544 61.5645 6.37058 59.8549 7.01603C58.7298 7.43906 58.3503 8.04525 58.8344 9.15733C58.8475 9.18786 58.9086 9.20095 58.9129 9.23147C59.0917 10.204 59.6151 11.0937 59.5453 12.1403C59.4755 13.1696 59.6238 14.2206 59.022 15.1321ZM85.4765 92.0708C83.7931 93.885 81.739 95.0581 79.3273 95.6294C79.4843 96.1789 79.7852 96.4057 80.3391 96.3883C82.2536 96.3229 83.8716 95.5379 85.254 94.2906C86.2876 93.3617 86.2353 93.3006 85.4765 92.0708ZM91.4599 105.115C91.1764 106.585 91.3291 107.021 92.3539 107.522C93.0648 107.871 93.8454 107.74 94.6043 107.688C94.8572 107.67 94.9095 107.396 95.0404 107.243C95.4547 106.759 95.4067 104.967 95.0099 104.369C94.7046 106.192 92.8031 106.497 91.4643 105.111L91.4599 105.115ZM90.5572 107.989C89.6239 106.292 89.4669 104.592 89.1572 102.956C88.6557 102.834 88.4507 103.087 88.2588 103.431C87.705 104.413 87.8751 106.375 88.5859 107.3C88.7691 107.54 88.9305 107.723 89.2575 107.749C89.6064 107.775 89.951 107.871 90.5615 107.984L90.5572 107.989ZM23.7406 98.9744C21.6167 98.7956 19.6673 98.2461 17.8269 97.2823C17.4824 97.5658 17.2294 97.8885 17.3036 98.3464C18.6773 99.3931 20.3607 99.3974 21.9176 99.7987C22.3232 99.9033 22.7811 99.8292 23.2129 99.8379C23.7755 99.8466 23.8627 99.5283 23.7406 98.9744ZM86.8938 107.317C87.3953 105.965 86.1175 104.766 86.8284 103.523C86.4097 103.266 86.0739 103.344 85.7512 103.418C85.4241 105.342 85.8472 106.824 86.8895 107.313L86.8938 107.317ZM31.4423 81.0459C31.0847 81.8004 30.8143 82.3673 30.5439 82.9299C30.1383 83.7672 30.1994 83.9635 31.0672 84.4999C31.6734 83.8588 31.8217 82.7467 31.4467 81.0459H31.4423ZM84.3338 103.305C83.7102 103.663 83.5183 103.99 83.5314 104.526C83.5532 105.254 83.9719 105.891 83.9108 106.633C83.8628 107.204 84.2205 107.396 84.9226 107.431C84.3687 106.079 84.3382 104.775 84.3295 103.305H84.3338ZM94.0766 99.5239C93.9327 100.954 94.8834 102.127 95.036 103.493C95.6204 101.984 95.1668 100.688 94.0766 99.5239Z" fill="black"/>
<path d="M41.0239 86.2881C40.7317 86.2881 40.5093 86.3143 40.2956 86.2837C39.7287 86.2052 39.3754 85.804 39.3187 85.2981C39.2664 84.8358 39.6371 84.596 40.1124 84.4521C40.5006 84.3343 40.8713 84.2471 41.2725 84.2384C42.2145 84.2122 43.1652 84.2297 44.0985 84.1381C45.7731 83.9724 47.4391 83.7761 49.092 83.4054C49.9598 83.2135 50.8495 83.0827 51.7304 82.9344C52.8992 82.7382 54.0287 82.4939 55.1365 82.0753C55.4897 81.9401 55.9302 81.9619 56.3183 81.9968C56.8809 82.0491 57.1513 82.8079 56.7544 83.2222C56.5669 83.4185 56.2878 83.6235 56.0305 83.6496C54.3602 83.8284 52.8033 84.5 51.1155 84.6876C50.1343 84.7966 49.0527 84.8925 48.0933 85.3156C47.9973 85.3592 47.8839 85.4028 47.7793 85.3984C46.2485 85.3287 44.805 86.0395 43.2742 85.9174C42.45 85.852 41.7653 86.4669 41.0152 86.2881H41.0239Z" fill="black"/>
<path d="M63.4447 74.5122C63.4447 74.9527 63.4621 75.2798 63.4447 75.6025C63.4054 76.1346 63.074 76.3483 62.5725 76.3657C62.0709 76.3832 61.7308 76.2218 61.7264 75.6418C61.7177 74.8524 61.2118 74.0979 61.6741 73.2519C61.8747 72.8855 62.0579 72.5715 62.4329 72.4625C62.9083 72.3273 62.9781 72.807 63.2005 73.0643C63.6148 73.5397 63.3662 74.1067 63.4491 74.5079L63.4447 74.5122Z" fill="black"/>
<path d="M74.334 153.759C73.6145 154.753 74.1116 156.209 73.6101 157.518C73.3397 158.229 73.2786 159.035 73.0911 159.799C72.7161 161.321 72.027 162.716 71.5342 164.19C71.1766 165.259 70.7492 166.31 70.4396 167.396C70.3523 167.697 70.2128 167.915 70.0209 168.12C69.7331 168.429 69.3711 168.381 69.0135 168.277C68.5686 168.146 68.682 167.766 68.6864 167.465C68.6908 166.667 69.092 165.961 69.3318 165.228C70.0514 163.013 70.9106 160.845 71.665 158.639C71.8962 157.967 71.9354 157.226 72.0401 156.537C72.1884 155.538 72.607 154.605 72.6288 153.593C72.6376 153.292 72.7422 153.052 72.921 152.808C73.1129 152.542 73.2394 152.127 73.6188 152.263C73.9939 152.398 74.3907 152.651 74.3384 153.183C74.3297 153.292 74.3384 153.401 74.3384 153.759H74.334Z" fill="black"/>
</svg>
